# xmcd CD database file
#
# Track frame offsets:
#	150
#	25507
#	41987
#	59262
#	77712
#	95362
#	112397
#	129975
#	146132
#	169615
#	188000
#	207480
#
# Disc length: 2971 seconds
#
# Revision: 0
# Processed by: cddbd v1.4PL0 Copyright (c) Steve Scherf et al.
# Submitted via: CDex 1.40Release
#
DISCID=a80b990c
DTITLE=Jimmy Morello - The Road I Travel
DYEAR=1998
DGENRE=Blues
TTITLE0=I Need To Go Home
TTITLE1=Too Much Crime In The City
TTITLE2=I Need Some Money
TTITLE3=Put Down That Bottle
TTITLE4=No One Answers The Telephone
TTITLE5=Retro Jump
TTITLE6=The Way I Used To Be
TTITLE7=Working Stuff
TTITLE8=Sugar And Honey
TTITLE9=I Got To Know
TTITLE10=What Is Going On
TTITLE11=If I Get Lucky
EXTD=YEAR: 1998 ID3G: 0
EXTT0=
EXTT1=
EXTT2=
EXTT3=
EXTT4=
EXTT5=
EXTT6=
EXTT7=
EXTT8=
EXTT9=
EXTT10=
EXTT11=
PLAYORDER=
